{
    "streams": [
        {
            "index": 0,
            "codec_name": "hevc",
            "codec_long_name": "H.265 / HEVC (High Efficiency Video Coding)",
            "profile": "Main 10",
            "codec_type": "video",
            "codec_time_base": "1001/24000",
            "codec_tag_string": "[0][0][0][0]",
            "codec_tag": "0x0000",
            "width": 3840,
            "height": 1600,
            "coded_width": 3840,
            "coded_height": 1600,
            "has_b_frames": 2,
            "sample_aspect_ratio": "1:1",
            "display_aspect_ratio": "12:5",
            "pix_fmt": "yuv420p10le",
            "level": 153,
            "color_range": "tv",
            "color_space": "bt2020nc",
            "color_transfer": "smpte2084",
            "color_primaries": "bt2020",
            "refs": 1,
            "r_frame_rate": "24000/1001",
            "avg_frame_rate": "24000/1001",
            "time_base": "1/1000",
            "start_pts": 0,
            "start_time": "0.000000",
            "disposition": {
                "default": 1,
                "dub": 0,
                "original": 0,
                "comment": 0,
                "lyrics": 0,
                "karaoke": 0,
                "forced": 0,
                "hearing_impaired": 0,
                "visual_impaired": 0,
                "clean_effects": 0,
                "attached_pic": 0,
                "timed_thumbnails": 0
            },
            "tags": {
                "BPS-eng": "30703519",
                "DURATION-eng": "02:16:18.671000000",
                "NUMBER_OF_FRAMES-eng": "196092",
                "NUMBER_OF_BYTES-eng": "31389247745",
                "_STATISTICS_WRITING_APP-eng": "no_variable_data",
                "_STATISTICS_WRITING_DATE_UTC-eng": "1970-01-01 00:00:00",
                "_STATISTICS_TAGS-eng": "BPS DURATION NUMBER_OF_FRAMES NUMBER_OF_BYTES"
            }
        },
        {
            "index": 1,
            "codec_name": "truehd",
            "codec_long_name": "TrueHD",
            "codec_type": "audio",
            "codec_time_base": "1/48000",
            "codec_tag_string": "[0][0][0][0]",
            "codec_tag": "0x0000",
            "sample_fmt": "s32",
            "sample_rate": "48000",
            "channels": 8,
            "channel_layout": "7.1",
            "bits_per_sample": 0,
            "r_frame_rate": "0/0",
            "avg_frame_rate": "0/0",
            "time_base": "1/1000",
            "start_pts": 0,
            "start_time": "0.000000",
            "bits_per_raw_sample": "24",
            "disposition": {
                "default": 1,
                "dub": 0,
                "original": 0,
                "comment": 0,
                "lyrics": 0,
                "karaoke": 0,
                "forced": 0,
                "hearing_impaired": 0,
                "visual_impaired": 0,
                "clean_effects": 0,
                "attached_pic": 0,
                "timed_thumbnails": 0
            },
            "tags": {
                "language": "eng",
                "title": "Atmos 7.1",
                "BPS-eng": "4419605",
                "DURATION-eng": "02:16:18.671000000",
                "NUMBER_OF_FRAMES-eng": "9814405",
                "NUMBER_OF_BYTES-eng": "4518312588",
                "_STATISTICS_WRITING_APP-eng": "no_variable_data",
                "_STATISTICS_WRITING_DATE_UTC-eng": "1970-01-01 00:00:00",
                "_STATISTICS_TAGS-eng": "BPS DURATION NUMBER_OF_FRAMES NUMBER_OF_BYTES"
            }
        },
        {
            "index": 2,
            "codec_name": "ac3",
            "codec_long_name": "ATSC A/52A (AC-3)",
            "codec_type": "audio",
            "codec_time_base": "1/48000",
            "codec_tag_string": "[0][0][0][0]",
            "codec_tag": "0x0000",
            "sample_fmt": "fltp",
            "sample_rate": "48000",
            "channels": 6,
            "channel_layout": "5.1(side)",
            "bits_per_sample": 0,
            "dmix_mode": "-1",
            "ltrt_cmixlev": "-1.000000",
            "ltrt_surmixlev": "-1.000000",
            "loro_cmixlev": "-1.000000",
            "loro_surmixlev": "-1.000000",
            "r_frame_rate": "0/0",
            "avg_frame_rate": "0/0",
            "time_base": "1/1000",
            "start_pts": 0,
            "start_time": "0.000000",
            "bit_rate": "640000",
            "disposition": {
                "default": 0,
                "dub": 0,
                "original": 0,
                "comment": 0,
                "lyrics": 0,
                "karaoke": 0,
                "forced": 0,
                "hearing_impaired": 0,
                "visual_impaired": 0,
                "clean_effects": 0,
                "attached_pic": 0,
                "timed_thumbnails": 0
            },
            "tags": {
                "language": "eng",
                "title": "AC-3 5.1",
                "BPS-eng": "640000",
                "DURATION-eng": "02:16:18.688000000",
                "NUMBER_OF_FRAMES-eng": "255584",
                "NUMBER_OF_BYTES-eng": "654295040",
                "_STATISTICS_WRITING_APP-eng": "no_variable_data",
                "_STATISTICS_WRITING_DATE_UTC-eng": "1970-01-01 00:00:00",
                "_STATISTICS_TAGS-eng": "BPS DURATION NUMBER_OF_FRAMES NUMBER_OF_BYTES"
            }
        },
        {
            "index": 3,
            "codec_name": "ac3",
            "codec_long_name": "ATSC A/52A (AC-3)",
            "codec_type": "audio",
            "codec_time_base": "1/48000",
            "codec_tag_string": "[0][0][0][0]",
            "codec_tag": "0x0000",
            "sample_fmt": "fltp",
            "sample_rate": "48000",
            "channels": 2,
            "channel_layout": "stereo",
            "bits_per_sample": 0,
            "dmix_mode": "-1",
            "ltrt_cmixlev": "-1.000000",
            "ltrt_surmixlev": "-1.000000",
            "loro_cmixlev": "-1.000000",
            "loro_surmixlev": "-1.000000",
            "r_frame_rate": "0/0",
            "avg_frame_rate": "0/0",
            "time_base": "1/1000",
            "start_pts": 0,
            "start_time": "0.000000",
            "bit_rate": "192000",
            "disposition": {
                "default": 0,
                "dub": 0,
                "original": 0,
                "comment": 0,
                "lyrics": 0,
                "karaoke": 0,
                "forced": 0,
                "hearing_impaired": 0,
                "visual_impaired": 0,
                "clean_effects": 0,
                "attached_pic": 0,
                "timed_thumbnails": 0
            },
            "tags": {
                "language": "eng",
                "title": "Philosopher Commentary by Dr. Cornel West and Ken Wilber",
                "BPS-eng": "192000",
                "DURATION-eng": "02:16:17.856000000",
                "NUMBER_OF_FRAMES-eng": "255558",
                "NUMBER_OF_BYTES-eng": "196268544",
                "_STATISTICS_WRITING_APP-eng": "no_variable_data",
                "_STATISTICS_WRITING_DATE_UTC-eng": "1970-01-01 00:00:00",
                "_STATISTICS_TAGS-eng": "BPS DURATION NUMBER_OF_FRAMES NUMBER_OF_BYTES"
            }
        },
        {
            "index": 4,
            "codec_name": "ac3",
            "codec_long_name": "ATSC A/52A (AC-3)",
            "codec_type": "audio",
            "codec_time_base": "1/48000",
            "codec_tag_string": "[0][0][0][0]",
            "codec_tag": "0x0000",
            "sample_fmt": "fltp",
            "sample_rate": "48000",
            "channels": 2,
            "channel_layout": "stereo",
            "bits_per_sample": 0,
            "dmix_mode": "-1",
            "ltrt_cmixlev": "-1.000000",
            "ltrt_surmixlev": "-1.000000",
            "loro_cmixlev": "-1.000000",
            "loro_surmixlev": "-1.000000",
            "r_frame_rate": "0/0",
            "avg_frame_rate": "0/0",
            "time_base": "1/1000",
            "start_pts": 0,
            "start_time": "0.000000",
            "bit_rate": "192000",
            "disposition": {
                "default": 0,
                "dub": 0,
                "original": 0,
                "comment": 0,
                "lyrics": 0,
                "karaoke": 0,
                "forced": 0,
                "hearing_impaired": 0,
                "visual_impaired": 0,
                "clean_effects": 0,
                "attached_pic": 0,
                "timed_thumbnails": 0
            },
            "tags": {
                "language": "eng",
                "title": "Critics Commentary by Todd McCarthy John Powers and David Thomson",
                "BPS-eng": "192000",
                "DURATION-eng": "02:16:17.856000000",
                "NUMBER_OF_FRAMES-eng": "255558",
                "NUMBER_OF_BYTES-eng": "196268544",
                "_STATISTICS_WRITING_APP-eng": "no_variable_data",
                "_STATISTICS_WRITING_DATE_UTC-eng": "1970-01-01 00:00:00",
                "_STATISTICS_TAGS-eng": "BPS DURATION NUMBER_OF_FRAMES NUMBER_OF_BYTES"
            }
        },
        {
            "index": 5,
            "codec_name": "ac3",
            "codec_long_name": "ATSC A/52A (AC-3)",
            "codec_type": "audio",
            "codec_time_base": "1/48000",
            "codec_tag_string": "[0][0][0][0]",
            "codec_tag": "0x0000",
            "sample_fmt": "fltp",
            "sample_rate": "48000",
            "channels": 2,
            "channel_layout": "stereo",
            "bits_per_sample": 0,
            "dmix_mode": "-1",
            "ltrt_cmixlev": "-1.000000",
            "ltrt_surmixlev": "-1.000000",
            "loro_cmixlev": "-1.000000",
            "loro_surmixlev": "-1.000000",
            "r_frame_rate": "0/0",
            "avg_frame_rate": "0/0",
            "time_base": "1/1000",
            "start_pts": 0,
            "start_time": "0.000000",
            "bit_rate": "192000",
            "disposition": {
                "default": 0,
                "dub": 0,
                "original": 0,
                "comment": 0,
                "lyrics": 0,
                "karaoke": 0,
                "forced": 0,
                "hearing_impaired": 0,
                "visual_impaired": 0,
                "clean_effects": 0,
                "attached_pic": 0,
                "timed_thumbnails": 0
            },
            "tags": {
                "language": "eng",
                "title": "Cast and Crew Commentary by Carrie-Anne Moss, Zach Staenberg and John Gaeta",
                "BPS-eng": "192000",
                "DURATION-eng": "02:16:17.856000000",
                "NUMBER_OF_FRAMES-eng": "255558",
                "NUMBER_OF_BYTES-eng": "196268544",
                "_STATISTICS_WRITING_APP-eng": "no_variable_data",
                "_STATISTICS_WRITING_DATE_UTC-eng": "1970-01-01 00:00:00",
                "_STATISTICS_TAGS-eng": "BPS DURATION NUMBER_OF_FRAMES NUMBER_OF_BYTES"
            }
        },
        {
            "index": 6,
            "codec_name": "ac3",
            "codec_long_name": "ATSC A/52A (AC-3)",
            "codec_type": "audio",
            "codec_time_base": "1/48000",
            "codec_tag_string": "[0][0][0][0]",
            "codec_tag": "0x0000",
            "sample_fmt": "fltp",
            "sample_rate": "48000",
            "channels": 2,
            "channel_layout": "stereo",
            "bits_per_sample": 0,
            "dmix_mode": "-1",
            "ltrt_cmixlev": "-1.000000",
            "ltrt_surmixlev": "-1.000000",
            "loro_cmixlev": "-1.000000",
            "loro_surmixlev": "-1.000000",
            "r_frame_rate": "0/0",
            "avg_frame_rate": "0/0",
            "time_base": "1/1000",
            "start_pts": 0,
            "start_time": "0.000000",
            "bit_rate": "192000",
            "disposition": {
                "default": 0,
                "dub": 0,
                "original": 0,
                "comment": 0,
                "lyrics": 0,
                "karaoke": 0,
                "forced": 0,
                "hearing_impaired": 0,
                "visual_impaired": 0,
                "clean_effects": 0,
                "attached_pic": 0,
                "timed_thumbnails": 0
            },
            "tags": {
                "language": "eng",
                "title": "Composer Commentary by Don Davis",
                "BPS-eng": "192000",
                "DURATION-eng": "02:16:17.856000000",
                "NUMBER_OF_FRAMES-eng": "255558",
                "NUMBER_OF_BYTES-eng": "196268544",
                "_STATISTICS_WRITING_APP-eng": "no_variable_data",
                "_STATISTICS_WRITING_DATE_UTC-eng": "1970-01-01 00:00:00",
                "_STATISTICS_TAGS-eng": "BPS DURATION NUMBER_OF_FRAMES NUMBER_OF_BYTES"
            }
        },
        {
            "index": 7,
            "codec_name": "subrip",
            "codec_long_name": "SubRip subtitle",
            "codec_type": "subtitle",
            "codec_time_base": "0/1",
            "codec_tag_string": "[0][0][0][0]",
            "codec_tag": "0x0000",
            "r_frame_rate": "0/0",
            "avg_frame_rate": "0/0",
            "time_base": "1/1000",
            "start_pts": 0,
            "start_time": "0.000000",
            "duration_ts": 8178688,
            "duration": "8178.688000",
            "disposition": {
                "default": 0,
                "dub": 0,
                "original": 0,
                "comment": 0,
                "lyrics": 0,
                "karaoke": 0,
                "forced": 0,
                "hearing_impaired": 0,
                "visual_impaired": 0,
                "clean_effects": 0,
                "attached_pic": 0,
                "timed_thumbnails": 0
            },
            "tags": {
                "language": "eng",
                "title": "Stripped SRT",
                "BPS-eng": "41",
                "DURATION-eng": "02:07:54.292000000",
                "NUMBER_OF_FRAMES-eng": "1344",
                "NUMBER_OF_BYTES-eng": "39516",
                "_STATISTICS_WRITING_APP-eng": "no_variable_data",
                "_STATISTICS_WRITING_DATE_UTC-eng": "1970-01-01 00:00:00",
                "_STATISTICS_TAGS-eng": "BPS DURATION NUMBER_OF_FRAMES NUMBER_OF_BYTES"
            }
        },
        {
            "index": 8,
            "codec_name": "subrip",
            "codec_long_name": "SubRip subtitle",
            "codec_type": "subtitle",
            "codec_time_base": "0/1",
            "codec_tag_string": "[0][0][0][0]",
            "codec_tag": "0x0000",
            "r_frame_rate": "0/0",
            "avg_frame_rate": "0/0",
            "time_base": "1/1000",
            "start_pts": 0,
            "start_time": "0.000000",
            "duration_ts": 8178688,
            "duration": "8178.688000",
            "disposition": {
                "default": 0,
                "dub": 0,
                "original": 0,
                "comment": 0,
                "lyrics": 0,
                "karaoke": 0,
                "forced": 0,
                "hearing_impaired": 0,
                "visual_impaired": 0,
                "clean_effects": 0,
                "attached_pic": 0,
                "timed_thumbnails": 0
            },
            "tags": {
                "language": "eng",
                "title": "SDH SRT",
                "BPS-eng": "40",
                "DURATION-eng": "02:15:33.209000000",
                "NUMBER_OF_FRAMES-eng": "1373",
                "NUMBER_OF_BYTES-eng": "40817",
                "_STATISTICS_WRITING_APP-eng": "no_variable_data",
                "_STATISTICS_WRITING_DATE_UTC-eng": "1970-01-01 00:00:00",
                "_STATISTICS_TAGS-eng": "BPS DURATION NUMBER_OF_FRAMES NUMBER_OF_BYTES"
            }
        },
        {
            "index": 9,
            "codec_name": "hdmv_pgs_subtitle",
            "codec_long_name": "HDMV Presentation Graphic Stream subtitles",
            "codec_type": "subtitle",
            "codec_time_base": "0/1",
            "codec_tag_string": "[0][0][0][0]",
            "codec_tag": "0x0000",
            "r_frame_rate": "0/0",
            "avg_frame_rate": "0/0",
            "time_base": "1/1000",
            "start_pts": 0,
            "start_time": "0.000000",
            "duration_ts": 8178688,
            "duration": "8178.688000",
            "disposition": {
                "default": 0,
                "dub": 0,
                "original": 0,
                "comment": 0,
                "lyrics": 0,
                "karaoke": 0,
                "forced": 0,
                "hearing_impaired": 0,
                "visual_impaired": 0,
                "clean_effects": 0,
                "attached_pic": 0,
                "timed_thumbnails": 0
            },
            "tags": {
                "language": "eng",
                "title": "SDH",
                "BPS-eng": "21270",
                "DURATION-eng": "02:15:33.208000000",
                "NUMBER_OF_FRAMES-eng": "2746",
                "NUMBER_OF_BYTES-eng": "21624658",
                "_STATISTICS_WRITING_APP-eng": "no_variable_data",
                "_STATISTICS_WRITING_DATE_UTC-eng": "1970-01-01 00:00:00",
                "_STATISTICS_TAGS-eng": "BPS DURATION NUMBER_OF_FRAMES NUMBER_OF_BYTES"
            }
        },
        {
            "index": 10,
            "codec_name": "hdmv_pgs_subtitle",
            "codec_long_name": "HDMV Presentation Graphic Stream subtitles",
            "codec_type": "subtitle",
            "codec_time_base": "0/1",
            "codec_tag_string": "[0][0][0][0]",
            "codec_tag": "0x0000",
            "r_frame_rate": "0/0",
            "avg_frame_rate": "0/0",
            "time_base": "1/1000",
            "start_pts": 0,
            "start_time": "0.000000",
            "duration_ts": 8178688,
            "duration": "8178.688000",
            "disposition": {
                "default": 0,
                "dub": 0,
                "original": 0,
                "comment": 0,
                "lyrics": 0,
                "karaoke": 0,
                "forced": 0,
                "hearing_impaired": 0,
                "visual_impaired": 0,
                "clean_effects": 0,
                "attached_pic": 0,
                "timed_thumbnails": 0
            },
            "tags": {
                "language": "spa",
                "BPS-eng": "18938",
                "DURATION-eng": "02:15:28.037000000",
                "NUMBER_OF_FRAMES-eng": "2660",
                "NUMBER_OF_BYTES-eng": "19242017",
                "_STATISTICS_WRITING_APP-eng": "no_variable_data",
                "_STATISTICS_WRITING_DATE_UTC-eng": "1970-01-01 00:00:00",
                "_STATISTICS_TAGS-eng": "BPS DURATION NUMBER_OF_FRAMES NUMBER_OF_BYTES"
            }
        },
        {
            "index": 11,
            "codec_name": "hdmv_pgs_subtitle",
            "codec_long_name": "HDMV Presentation Graphic Stream subtitles",
            "codec_type": "subtitle",
            "codec_time_base": "0/1",
            "codec_tag_string": "[0][0][0][0]",
            "codec_tag": "0x0000",
            "r_frame_rate": "0/0",
            "avg_frame_rate": "0/0",
            "time_base": "1/1000",
            "start_pts": 0,
            "start_time": "0.000000",
            "duration_ts": 8178688,
            "duration": "8178.688000",
            "disposition": {
                "default": 0,
                "dub": 0,
                "original": 0,
                "comment": 0,
                "lyrics": 0,
                "karaoke": 0,
                "forced": 0,
                "hearing_impaired": 0,
                "visual_impaired": 0,
                "clean_effects": 0,
                "attached_pic": 0,
                "timed_thumbnails": 0
            },
            "tags": {
                "language": "por",
                "BPS-eng": "20524",
                "DURATION-eng": "02:15:28.037000000",
                "NUMBER_OF_FRAMES-eng": "2606",
                "NUMBER_OF_BYTES-eng": "20852590",
                "_STATISTICS_WRITING_APP-eng": "no_variable_data",
                "_STATISTICS_WRITING_DATE_UTC-eng": "1970-01-01 00:00:00",
                "_STATISTICS_TAGS-eng": "BPS DURATION NUMBER_OF_FRAMES NUMBER_OF_BYTES"
            }
        },
        {
            "index": 12,
            "codec_name": "hdmv_pgs_subtitle",
            "codec_long_name": "HDMV Presentation Graphic Stream subtitles",
            "codec_type": "subtitle",
            "codec_time_base": "0/1",
            "codec_tag_string": "[0][0][0][0]",
            "codec_tag": "0x0000",
            "r_frame_rate": "0/0",
            "avg_frame_rate": "0/0",
            "time_base": "1/1000",
            "start_pts": 0,
            "start_time": "0.000000",
            "duration_ts": 8178688,
            "duration": "8178.688000",
            "disposition": {
                "default": 0,
                "dub": 0,
                "original": 0,
                "comment": 0,
                "lyrics": 0,
                "karaoke": 0,
                "forced": 0,
                "hearing_impaired": 0,
                "visual_impaired": 0,
                "clean_effects": 0,
                "attached_pic": 0,
                "timed_thumbnails": 0
            },
            "tags": {
                "language": "por",
                "BPS-eng": "21731",
                "DURATION-eng": "02:15:26.660000000",
                "NUMBER_OF_FRAMES-eng": "2644",
                "NUMBER_OF_BYTES-eng": "22075522",
                "_STATISTICS_WRITING_APP-eng": "no_variable_data",
                "_STATISTICS_WRITING_DATE_UTC-eng": "1970-01-01 00:00:00",
                "_STATISTICS_TAGS-eng": "BPS DURATION NUMBER_OF_FRAMES NUMBER_OF_BYTES"
            }
        },
        {
            "index": 13,
            "codec_name": "hdmv_pgs_subtitle",
            "codec_long_name": "HDMV Presentation Graphic Stream subtitles",
            "codec_type": "subtitle",
            "codec_time_base": "0/1",
            "codec_tag_string": "[0][0][0][0]",
            "codec_tag": "0x0000",
            "r_frame_rate": "0/0",
            "avg_frame_rate": "0/0",
            "time_base": "1/1000",
            "start_pts": 0,
            "start_time": "0.000000",
            "duration_ts": 8178688,
            "duration": "8178.688000",
            "disposition": {
                "default": 0,
                "dub": 0,
                "original": 0,
                "comment": 0,
                "lyrics": 0,
                "karaoke": 0,
                "forced": 0,
                "hearing_impaired": 0,
                "visual_impaired": 0,
                "clean_effects": 0,
                "attached_pic": 0,
                "timed_thumbnails": 0
            },
            "tags": {
                "language": "ita",
                "BPS-eng": "20608",
                "DURATION-eng": "02:15:33.208000000",
                "NUMBER_OF_FRAMES-eng": "2702",
                "NUMBER_OF_BYTES-eng": "20951398",
                "_STATISTICS_WRITING_APP-eng": "no_variable_data",
                "_STATISTICS_WRITING_DATE_UTC-eng": "1970-01-01 00:00:00",
                "_STATISTICS_TAGS-eng": "BPS DURATION NUMBER_OF_FRAMES NUMBER_OF_BYTES"
            }
        },
        {
            "index": 14,
            "codec_name": "hdmv_pgs_subtitle",
            "codec_long_name": "HDMV Presentation Graphic Stream subtitles",
            "codec_type": "subtitle",
            "codec_time_base": "0/1",
            "codec_tag_string": "[0][0][0][0]",
            "codec_tag": "0x0000",
            "r_frame_rate": "0/0",
            "avg_frame_rate": "0/0",
            "time_base": "1/1000",
            "start_pts": 0,
            "start_time": "0.000000",
            "duration_ts": 8178688,
            "duration": "8178.688000",
            "disposition": {
                "default": 0,
                "dub": 0,
                "original": 0,
                "comment": 0,
                "lyrics": 0,
                "karaoke": 0,
                "forced": 0,
                "hearing_impaired": 0,
                "visual_impaired": 0,
                "clean_effects": 0,
                "attached_pic": 0,
                "timed_thumbnails": 0
            },
            "tags": {
                "language": "ger",
                "BPS-eng": "22262",
                "DURATION-eng": "02:15:33.208000000",
                "NUMBER_OF_FRAMES-eng": "2844",
                "NUMBER_OF_BYTES-eng": "22633380",
                "_STATISTICS_WRITING_APP-eng": "no_variable_data",
                "_STATISTICS_WRITING_DATE_UTC-eng": "1970-01-01 00:00:00",
                "_STATISTICS_TAGS-eng": "BPS DURATION NUMBER_OF_FRAMES NUMBER_OF_BYTES"
            }
        },
        {
            "index": 15,
            "codec_name": "hdmv_pgs_subtitle",
            "codec_long_name": "HDMV Presentation Graphic Stream subtitles",
            "codec_type": "subtitle",
            "codec_time_base": "0/1",
            "codec_tag_string": "[0][0][0][0]",
            "codec_tag": "0x0000",
            "r_frame_rate": "0/0",
            "avg_frame_rate": "0/0",
            "time_base": "1/1000",
            "start_pts": 0,
            "start_time": "0.000000",
            "duration_ts": 8178688,
            "duration": "8178.688000",
            "disposition": {
                "default": 0,
                "dub": 0,
                "original": 0,
                "comment": 0,
                "lyrics": 0,
                "karaoke": 0,
                "forced": 0,
                "hearing_impaired": 0,
                "visual_impaired": 0,
                "clean_effects": 0,
                "attached_pic": 0,
                "timed_thumbnails": 0
            },
            "tags": {
                "language": "swe",
                "BPS-eng": "17708",
                "DURATION-eng": "02:15:26.660000000",
                "NUMBER_OF_FRAMES-eng": "1740",
                "NUMBER_OF_BYTES-eng": "17989103",
                "_STATISTICS_WRITING_APP-eng": "no_variable_data",
                "_STATISTICS_WRITING_DATE_UTC-eng": "1970-01-01 00:00:00",
                "_STATISTICS_TAGS-eng": "BPS DURATION NUMBER_OF_FRAMES NUMBER_OF_BYTES"
            }
        },
        {
            "index": 16,
            "codec_name": "hdmv_pgs_subtitle",
            "codec_long_name": "HDMV Presentation Graphic Stream subtitles",
            "codec_type": "subtitle",
            "codec_time_base": "0/1",
            "codec_tag_string": "[0][0][0][0]",
            "codec_tag": "0x0000",
            "r_frame_rate": "0/0",
            "avg_frame_rate": "0/0",
            "time_base": "1/1000",
            "start_pts": 0,
            "start_time": "0.000000",
            "duration_ts": 8178688,
            "duration": "8178.688000",
            "disposition": {
                "default": 0,
                "dub": 0,
                "original": 0,
                "comment": 0,
                "lyrics": 0,
                "karaoke": 0,
                "forced": 0,
                "hearing_impaired": 0,
                "visual_impaired": 0,
                "clean_effects": 0,
                "attached_pic": 0,
                "timed_thumbnails": 0
            },
            "tags": {
                "language": "nor",
                "BPS-eng": "19962",
                "DURATION-eng": "02:15:26.660000000",
                "NUMBER_OF_FRAMES-eng": "1984",
                "NUMBER_OF_BYTES-eng": "20278255",
                "_STATISTICS_WRITING_APP-eng": "no_variable_data",
                "_STATISTICS_WRITING_DATE_UTC-eng": "1970-01-01 00:00:00",
                "_STATISTICS_TAGS-eng": "BPS DURATION NUMBER_OF_FRAMES NUMBER_OF_BYTES"
            }
        },
        {
            "index": 17,
            "codec_name": "hdmv_pgs_subtitle",
            "codec_long_name": "HDMV Presentation Graphic Stream subtitles",
            "codec_type": "subtitle",
            "codec_time_base": "0/1",
            "codec_tag_string": "[0][0][0][0]",
            "codec_tag": "0x0000",
            "r_frame_rate": "0/0",
            "avg_frame_rate": "0/0",
            "time_base": "1/1000",
            "start_pts": 0,
            "start_time": "0.000000",
            "duration_ts": 8178688,
            "duration": "8178.688000",
            "disposition": {
                "default": 0,
                "dub": 0,
                "original": 0,
                "comment": 0,
                "lyrics": 0,
                "karaoke": 0,
                "forced": 0,
                "hearing_impaired": 0,
                "visual_impaired": 0,
                "clean_effects": 0,
                "attached_pic": 0,
                "timed_thumbnails": 0
            },
            "tags": {
                "language": "dan",
                "BPS-eng": "18609",
                "DURATION-eng": "02:15:26.535000000",
                "NUMBER_OF_FRAMES-eng": "1844",
                "NUMBER_OF_BYTES-eng": "18904263",
                "_STATISTICS_WRITING_APP-eng": "no_variable_data",
                "_STATISTICS_WRITING_DATE_UTC-eng": "1970-01-01 00:00:00",
                "_STATISTICS_TAGS-eng": "BPS DURATION NUMBER_OF_FRAMES NUMBER_OF_BYTES"
            }
        },
        {
            "index": 18,
            "codec_name": "hdmv_pgs_subtitle",
            "codec_long_name": "HDMV Presentation Graphic Stream subtitles",
            "codec_type": "subtitle",
            "codec_time_base": "0/1",
            "codec_tag_string": "[0][0][0][0]",
            "codec_tag": "0x0000",
            "r_frame_rate": "0/0",
            "avg_frame_rate": "0/0",
            "time_base": "1/1000",
            "start_pts": 0,
            "start_time": "0.000000",
            "duration_ts": 8178688,
            "duration": "8178.688000",
            "disposition": {
                "default": 0,
                "dub": 0,
                "original": 0,
                "comment": 0,
                "lyrics": 0,
                "karaoke": 0,
                "forced": 0,
                "hearing_impaired": 0,
                "visual_impaired": 0,
                "clean_effects": 0,
                "attached_pic": 0,
                "timed_thumbnails": 0
            },
            "tags": {
                "language": "fin",
                "BPS-eng": "18123",
                "DURATION-eng": "02:15:26.535000000",
                "NUMBER_OF_FRAMES-eng": "1658",
                "NUMBER_OF_BYTES-eng": "18410231",
                "_STATISTICS_WRITING_APP-eng": "no_variable_data",
                "_STATISTICS_WRITING_DATE_UTC-eng": "1970-01-01 00:00:00",
                "_STATISTICS_TAGS-eng": "BPS DURATION NUMBER_OF_FRAMES NUMBER_OF_BYTES"
            }
        },
        {
            "index": 19,
            "codec_name": "hdmv_pgs_subtitle",
            "codec_long_name": "HDMV Presentation Graphic Stream subtitles",
            "codec_type": "subtitle",
            "codec_time_base": "0/1",
            "codec_tag_string": "[0][0][0][0]",
            "codec_tag": "0x0000",
            "r_frame_rate": "0/0",
            "avg_frame_rate": "0/0",
            "time_base": "1/1000",
            "start_pts": 0,
            "start_time": "0.000000",
            "duration_ts": 8178688,
            "duration": "8178.688000",
            "disposition": {
                "default": 0,
                "dub": 0,
                "original": 0,
                "comment": 0,
                "lyrics": 0,
                "karaoke": 0,
                "forced": 0,
                "hearing_impaired": 0,
                "visual_impaired": 0,
                "clean_effects": 0,
                "attached_pic": 0,
                "timed_thumbnails": 0
            },
            "tags": {
                "language": "rus",
                "BPS-eng": "20634",
                "DURATION-eng": "02:15:37.755000000",
                "NUMBER_OF_FRAMES-eng": "2734",
                "NUMBER_OF_BYTES-eng": "20989525",
                "_STATISTICS_WRITING_APP-eng": "no_variable_data",
                "_STATISTICS_WRITING_DATE_UTC-eng": "1970-01-01 00:00:00",
                "_STATISTICS_TAGS-eng": "BPS DURATION NUMBER_OF_FRAMES NUMBER_OF_BYTES"
            }
        },
        {
            "index": 20,
            "codec_name": "hdmv_pgs_subtitle",
            "codec_long_name": "HDMV Presentation Graphic Stream subtitles",
            "codec_type": "subtitle",
            "codec_time_base": "0/1",
            "codec_tag_string": "[0][0][0][0]",
            "codec_tag": "0x0000",
            "r_frame_rate": "0/0",
            "avg_frame_rate": "0/0",
            "time_base": "1/1000",
            "start_pts": 0,
            "start_time": "0.000000",
            "duration_ts": 8178688,
            "duration": "8178.688000",
            "disposition": {
                "default": 0,
                "dub": 0,
                "original": 0,
                "comment": 0,
                "lyrics": 0,
                "karaoke": 0,
                "forced": 0,
                "hearing_impaired": 0,
                "visual_impaired": 0,
                "clean_effects": 0,
                "attached_pic": 0,
                "timed_thumbnails": 0
            },
            "tags": {
                "language": "cze",
                "BPS-eng": "16561",
                "DURATION-eng": "02:15:28.037000000",
                "NUMBER_OF_FRAMES-eng": "2730",
                "NUMBER_OF_BYTES-eng": "16826322",
                "_STATISTICS_WRITING_APP-eng": "no_variable_data",
                "_STATISTICS_WRITING_DATE_UTC-eng": "1970-01-01 00:00:00",
                "_STATISTICS_TAGS-eng": "BPS DURATION NUMBER_OF_FRAMES NUMBER_OF_BYTES"
            }
        },
        {
            "index": 21,
            "codec_name": "hdmv_pgs_subtitle",
            "codec_long_name": "HDMV Presentation Graphic Stream subtitles",
            "codec_type": "subtitle",
            "codec_time_base": "0/1",
            "codec_tag_string": "[0][0][0][0]",
            "codec_tag": "0x0000",
            "r_frame_rate": "0/0",
            "avg_frame_rate": "0/0",
            "time_base": "1/1000",
            "start_pts": 0,
            "start_time": "0.000000",
            "duration_ts": 8178688,
            "duration": "8178.688000",
            "disposition": {
                "default": 0,
                "dub": 0,
                "original": 0,
                "comment": 0,
                "lyrics": 0,
                "karaoke": 0,
                "forced": 0,
                "hearing_impaired": 0,
                "visual_impaired": 0,
                "clean_effects": 0,
                "attached_pic": 0,
                "timed_thumbnails": 0
            },
            "tags": {
                "language": "pol",
                "BPS-eng": "16117",
                "DURATION-eng": "02:15:28.037000000",
                "NUMBER_OF_FRAMES-eng": "2770",
                "NUMBER_OF_BYTES-eng": "16375736",
                "_STATISTICS_WRITING_APP-eng": "no_variable_data",
                "_STATISTICS_WRITING_DATE_UTC-eng": "1970-01-01 00:00:00",
                "_STATISTICS_TAGS-eng": "BPS DURATION NUMBER_OF_FRAMES NUMBER_OF_BYTES"
            }
        },
        {
            "index": 22,
            "codec_name": "hdmv_pgs_subtitle",
            "codec_long_name": "HDMV Presentation Graphic Stream subtitles",
            "codec_type": "subtitle",
            "codec_time_base": "0/1",
            "codec_tag_string": "[0][0][0][0]",
            "codec_tag": "0x0000",
            "r_frame_rate": "0/0",
            "avg_frame_rate": "0/0",
            "time_base": "1/1000",
            "start_pts": 0,
            "start_time": "0.000000",
            "duration_ts": 8178688,
            "duration": "8178.688000",
            "disposition": {
                "default": 0,
                "dub": 0,
                "original": 0,
                "comment": 0,
                "lyrics": 0,
                "karaoke": 0,
                "forced": 0,
                "hearing_impaired": 0,
                "visual_impaired": 0,
                "clean_effects": 0,
                "attached_pic": 0,
                "timed_thumbnails": 0
            },
            "tags": {
                "language": "hun",
                "BPS-eng": "18247",
                "DURATION-eng": "02:15:37.755000000",
                "NUMBER_OF_FRAMES-eng": "2774",
                "NUMBER_OF_BYTES-eng": "18561215",
                "_STATISTICS_WRITING_APP-eng": "no_variable_data",
                "_STATISTICS_WRITING_DATE_UTC-eng": "1970-01-01 00:00:00",
                "_STATISTICS_TAGS-eng": "BPS DURATION NUMBER_OF_FRAMES NUMBER_OF_BYTES"
            }
        },
        {
            "index": 23,
            "codec_name": "hdmv_pgs_subtitle",
            "codec_long_name": "HDMV Presentation Graphic Stream subtitles",
            "codec_type": "subtitle",
            "codec_time_base": "0/1",
            "codec_tag_string": "[0][0][0][0]",
            "codec_tag": "0x0000",
            "r_frame_rate": "0/0",
            "avg_frame_rate": "0/0",
            "time_base": "1/1000",
            "start_pts": 0,
            "start_time": "0.000000",
            "duration_ts": 8178688,
            "duration": "8178.688000",
            "disposition": {
                "default": 0,
                "dub": 0,
                "original": 0,
                "comment": 0,
                "lyrics": 0,
                "karaoke": 0,
                "forced": 0,
                "hearing_impaired": 0,
                "visual_impaired": 0,
                "clean_effects": 0,
                "attached_pic": 0,
                "timed_thumbnails": 0
            },
            "tags": {
                "language": "rum",
                "BPS-eng": "18291",
                "DURATION-eng": "02:15:26.660000000",
                "NUMBER_OF_FRAMES-eng": "2736",
                "NUMBER_OF_BYTES-eng": "18581138",
                "_STATISTICS_WRITING_APP-eng": "no_variable_data",
                "_STATISTICS_WRITING_DATE_UTC-eng": "1970-01-01 00:00:00",
                "_STATISTICS_TAGS-eng": "BPS DURATION NUMBER_OF_FRAMES NUMBER_OF_BYTES"
            }
        },
        {
            "index": 24,
            "codec_name": "hdmv_pgs_subtitle",
            "codec_long_name": "HDMV Presentation Graphic Stream subtitles",
            "codec_type": "subtitle",
            "codec_time_base": "0/1",
            "codec_tag_string": "[0][0][0][0]",
            "codec_tag": "0x0000",
            "r_frame_rate": "0/0",
            "avg_frame_rate": "0/0",
            "time_base": "1/1000",
            "start_pts": 0,
            "start_time": "0.000000",
            "duration_ts": 8178688,
            "duration": "8178.688000",
            "disposition": {
                "default": 0,
                "dub": 0,
                "original": 0,
                "comment": 0,
                "lyrics": 0,
                "karaoke": 0,
                "forced": 0,
                "hearing_impaired": 0,
                "visual_impaired": 0,
                "clean_effects": 0,
                "attached_pic": 0,
                "timed_thumbnails": 0
            },
            "tags": {
                "language": "hrv",
                "BPS-eng": "18671",
                "DURATION-eng": "02:15:37.755000000",
                "NUMBER_OF_FRAMES-eng": "2774",
                "NUMBER_OF_BYTES-eng": "18993482",
                "_STATISTICS_WRITING_APP-eng": "no_variable_data",
                "_STATISTICS_WRITING_DATE_UTC-eng": "1970-01-01 00:00:00",
                "_STATISTICS_TAGS-eng": "BPS DURATION NUMBER_OF_FRAMES NUMBER_OF_BYTES"
            }
        },
        {
            "index": 25,
            "codec_name": "hdmv_pgs_subtitle",
            "codec_long_name": "HDMV Presentation Graphic Stream subtitles",
            "codec_type": "subtitle",
            "codec_time_base": "0/1",
            "codec_tag_string": "[0][0][0][0]",
            "codec_tag": "0x0000",
            "r_frame_rate": "0/0",
            "avg_frame_rate": "0/0",
            "time_base": "1/1000",
            "start_pts": 0,
            "start_time": "0.000000",
            "duration_ts": 8178688,
            "duration": "8178.688000",
            "disposition": {
                "default": 0,
                "dub": 0,
                "original": 0,
                "comment": 0,
                "lyrics": 0,
                "karaoke": 0,
                "forced": 0,
                "hearing_impaired": 0,
                "visual_impaired": 0,
                "clean_effects": 0,
                "attached_pic": 0,
                "timed_thumbnails": 0
            },
            "tags": {
                "language": "gre",
                "BPS-eng": "19213",
                "DURATION-eng": "02:15:27.870000000",
                "NUMBER_OF_FRAMES-eng": "2382",
                "NUMBER_OF_BYTES-eng": "19520185",
                "_STATISTICS_WRITING_APP-eng": "no_variable_data",
                "_STATISTICS_WRITING_DATE_UTC-eng": "1970-01-01 00:00:00",
                "_STATISTICS_TAGS-eng": "BPS DURATION NUMBER_OF_FRAMES NUMBER_OF_BYTES"
            }
        },
        {
            "index": 26,
            "codec_name": "hdmv_pgs_subtitle",
            "codec_long_name": "HDMV Presentation Graphic Stream subtitles",
            "codec_type": "subtitle",
            "codec_time_base": "0/1",
            "codec_tag_string": "[0][0][0][0]",
            "codec_tag": "0x0000",
            "r_frame_rate": "0/0",
            "avg_frame_rate": "0/0",
            "time_base": "1/1000",
            "start_pts": 0,
            "start_time": "0.000000",
            "duration_ts": 8178688,
            "duration": "8178.688000",
            "disposition": {
                "default": 0,
                "dub": 0,
                "original": 0,
                "comment": 0,
                "lyrics": 0,
                "karaoke": 0,
                "forced": 0,
                "hearing_impaired": 0,
                "visual_impaired": 0,
                "clean_effects": 0,
                "attached_pic": 0,
                "timed_thumbnails": 0
            },
            "tags": {
                "language": "tur",
                "BPS-eng": "19373",
                "DURATION-eng": "02:15:28.037000000",
                "NUMBER_OF_FRAMES-eng": "2730",
                "NUMBER_OF_BYTES-eng": "19683472",
                "_STATISTICS_WRITING_APP-eng": "no_variable_data",
                "_STATISTICS_WRITING_DATE_UTC-eng": "1970-01-01 00:00:00",
                "_STATISTICS_TAGS-eng": "BPS DURATION NUMBER_OF_FRAMES NUMBER_OF_BYTES"
            }
        },
        {
            "index": 27,
            "codec_name": "hdmv_pgs_subtitle",
            "codec_long_name": "HDMV Presentation Graphic Stream subtitles",
            "codec_type": "subtitle",
            "codec_time_base": "0/1",
            "codec_tag_string": "[0][0][0][0]",
            "codec_tag": "0x0000",
            "r_frame_rate": "0/0",
            "avg_frame_rate": "0/0",
            "time_base": "1/1000",
            "start_pts": 0,
            "start_time": "0.000000",
            "duration_ts": 8178688,
            "duration": "8178.688000",
            "disposition": {
                "default": 0,
                "dub": 0,
                "original": 0,
                "comment": 0,
                "lyrics": 0,
                "karaoke": 0,
                "forced": 0,
                "hearing_impaired": 0,
                "visual_impaired": 0,
                "clean_effects": 0,
                "attached_pic": 0,
                "timed_thumbnails": 0
            },
            "tags": {
                "language": "ara",
                "BPS-eng": "10251",
                "DURATION-eng": "02:15:37.755000000",
                "NUMBER_OF_FRAMES-eng": "2764",
                "NUMBER_OF_BYTES-eng": "10428296",
                "_STATISTICS_WRITING_APP-eng": "no_variable_data",
                "_STATISTICS_WRITING_DATE_UTC-eng": "1970-01-01 00:00:00",
                "_STATISTICS_TAGS-eng": "BPS DURATION NUMBER_OF_FRAMES NUMBER_OF_BYTES"
            }
        },
        {
            "index": 28,
            "codec_name": "hdmv_pgs_subtitle",
            "codec_long_name": "HDMV Presentation Graphic Stream subtitles",
            "codec_type": "subtitle",
            "codec_time_base": "0/1",
            "codec_tag_string": "[0][0][0][0]",
            "codec_tag": "0x0000",
            "r_frame_rate": "0/0",
            "avg_frame_rate": "0/0",
            "time_base": "1/1000",
            "start_pts": 0,
            "start_time": "0.000000",
            "duration_ts": 8178688,
            "duration": "8178.688000",
            "disposition": {
                "default": 0,
                "dub": 0,
                "original": 0,
                "comment": 0,
                "lyrics": 0,
                "karaoke": 0,
                "forced": 0,
                "hearing_impaired": 0,
                "visual_impaired": 0,
                "clean_effects": 0,
                "attached_pic": 0,
                "timed_thumbnails": 0
            },
            "tags": {
                "language": "jpn",
                "BPS-eng": "17688",
                "DURATION-eng": "02:07:54.209000000",
                "NUMBER_OF_FRAMES-eng": "2477",
                "NUMBER_OF_BYTES-eng": "16968078",
                "_STATISTICS_WRITING_APP-eng": "no_variable_data",
                "_STATISTICS_WRITING_DATE_UTC-eng": "1970-01-01 00:00:00",
                "_STATISTICS_TAGS-eng": "BPS DURATION NUMBER_OF_FRAMES NUMBER_OF_BYTES"
            }
        },
        {
            "index": 29,
            "codec_name": "hdmv_pgs_subtitle",
            "codec_long_name": "HDMV Presentation Graphic Stream subtitles",
            "codec_type": "subtitle",
            "codec_time_base": "0/1",
            "codec_tag_string": "[0][0][0][0]",
            "codec_tag": "0x0000",
            "r_frame_rate": "0/0",
            "avg_frame_rate": "0/0",
            "time_base": "1/1000",
            "start_pts": 0,
            "start_time": "0.000000",
            "duration_ts": 8178688,
            "duration": "8178.688000",
            "disposition": {
                "default": 0,
                "dub": 0,
                "original": 0,
                "comment": 0,
                "lyrics": 0,
                "karaoke": 0,
                "forced": 0,
                "hearing_impaired": 0,
                "visual_impaired": 0,
                "clean_effects": 0,
                "attached_pic": 0,
                "timed_thumbnails": 0
            },
            "tags": {
                "language": "jpn",
                "BPS-eng": "34704",
                "DURATION-eng": "02:11:56.951000000",
                "NUMBER_OF_FRAMES-eng": "3379",
                "NUMBER_OF_BYTES-eng": "34344388",
                "_STATISTICS_WRITING_APP-eng": "no_variable_data",
                "_STATISTICS_WRITING_DATE_UTC-eng": "1970-01-01 00:00:00",
                "_STATISTICS_TAGS-eng": "BPS DURATION NUMBER_OF_FRAMES NUMBER_OF_BYTES"
            }
        },
        {
            "index": 30,
            "codec_name": "hdmv_pgs_subtitle",
            "codec_long_name": "HDMV Presentation Graphic Stream subtitles",
            "codec_type": "subtitle",
            "codec_time_base": "0/1",
            "codec_tag_string": "[0][0][0][0]",
            "codec_tag": "0x0000",
            "width": 1920,
            "height": 1080,
            "r_frame_rate": "0/0",
            "avg_frame_rate": "0/0",
            "time_base": "1/1000",
            "start_pts": 3129,
            "start_time": "3.129000",
            "disposition": {
                "default": 0,
                "dub": 0,
                "original": 0,
                "comment": 0,
                "lyrics": 0,
                "karaoke": 0,
                "forced": 0,
                "hearing_impaired": 0,
                "visual_impaired": 0,
                "clean_effects": 0,
                "attached_pic": 0,
                "timed_thumbnails": 0
            },
            "tags": {
                "language": "jpn",
                "BPS-eng": "31568",
                "DURATION-eng": "02:12:35.197000000",
                "NUMBER_OF_FRAMES-eng": "3517",
                "NUMBER_OF_BYTES-eng": "31391338",
                "_STATISTICS_WRITING_APP-eng": "no_variable_data",
                "_STATISTICS_WRITING_DATE_UTC-eng": "1970-01-01 00:00:00",
                "_STATISTICS_TAGS-eng": "BPS DURATION NUMBER_OF_FRAMES NUMBER_OF_BYTES"
            }
        },
        {
            "index": 31,
            "codec_name": "hdmv_pgs_subtitle",
            "codec_long_name": "HDMV Presentation Graphic Stream subtitles",
            "codec_type": "subtitle",
            "codec_time_base": "0/1",
            "codec_tag_string": "[0][0][0][0]",
            "codec_tag": "0x0000",
            "r_frame_rate": "0/0",
            "avg_frame_rate": "0/0",
            "time_base": "1/1000",
            "start_pts": 0,
            "start_time": "0.000000",
            "duration_ts": 8178688,
            "duration": "8178.688000",
            "disposition": {
                "default": 0,
                "dub": 0,
                "original": 0,
                "comment": 0,
                "lyrics": 0,
                "karaoke": 0,
                "forced": 0,
                "hearing_impaired": 0,
                "visual_impaired": 0,
                "clean_effects": 0,
                "attached_pic": 0,
                "timed_thumbnails": 0
            },
            "tags": {
                "language": "jpn",
                "BPS-eng": "34044",
                "DURATION-eng": "02:09:12.912000000",
                "NUMBER_OF_FRAMES-eng": "3522",
                "NUMBER_OF_BYTES-eng": "32992651",
                "_STATISTICS_WRITING_APP-eng": "no_variable_data",
                "_STATISTICS_WRITING_DATE_UTC-eng": "1970-01-01 00:00:00",
                "_STATISTICS_TAGS-eng": "BPS DURATION NUMBER_OF_FRAMES NUMBER_OF_BYTES"
            }
        },
        {
            "index": 32,
            "codec_name": "hdmv_pgs_subtitle",
            "codec_long_name": "HDMV Presentation Graphic Stream subtitles",
            "codec_type": "subtitle",
            "codec_time_base": "0/1",
            "codec_tag_string": "[0][0][0][0]",
            "codec_tag": "0x0000",
            "r_frame_rate": "0/0",
            "avg_frame_rate": "0/0",
            "time_base": "1/1000",
            "start_pts": 0,
            "start_time": "0.000000",
            "duration_ts": 8178688,
            "duration": "8178.688000",
            "disposition": {
                "default": 0,
                "dub": 0,
                "original": 0,
                "comment": 0,
                "lyrics": 0,
                "karaoke": 0,
                "forced": 0,
                "hearing_impaired": 0,
                "visual_impaired": 0,
                "clean_effects": 0,
                "attached_pic": 0,
                "timed_thumbnails": 0
            },
            "tags": {
                "language": "chi",
                "BPS-eng": "17195",
                "DURATION-eng": "02:15:37.796000000",
                "NUMBER_OF_FRAMES-eng": "2620",
                "NUMBER_OF_BYTES-eng": "17491427",
                "_STATISTICS_WRITING_APP-eng": "no_variable_data",
                "_STATISTICS_WRITING_DATE_UTC-eng": "1970-01-01 00:00:00",
                "_STATISTICS_TAGS-eng": "BPS DURATION NUMBER_OF_FRAMES NUMBER_OF_BYTES"
            }
        },
        {
            "index": 33,
            "codec_name": "hdmv_pgs_subtitle",
            "codec_long_name": "HDMV Presentation Graphic Stream subtitles",
            "codec_type": "subtitle",
            "codec_time_base": "0/1",
            "codec_tag_string": "[0][0][0][0]",
            "codec_tag": "0x0000",
            "r_frame_rate": "0/0",
            "avg_frame_rate": "0/0",
            "time_base": "1/1000",
            "start_pts": 0,
            "start_time": "0.000000",
            "duration_ts": 8178688,
            "duration": "8178.688000",
            "disposition": {
                "default": 0,
                "dub": 0,
                "original": 0,
                "comment": 0,
                "lyrics": 0,
                "karaoke": 0,
                "forced": 0,
                "hearing_impaired": 0,
                "visual_impaired": 0,
                "clean_effects": 0,
                "attached_pic": 0,
                "timed_thumbnails": 0
            },
            "tags": {
                "language": "kor",
                "BPS-eng": "14120",
                "DURATION-eng": "02:15:37.796000000",
                "NUMBER_OF_FRAMES-eng": "2600",
                "NUMBER_OF_BYTES-eng": "14363617",
                "_STATISTICS_WRITING_APP-eng": "no_variable_data",
                "_STATISTICS_WRITING_DATE_UTC-eng": "1970-01-01 00:00:00",
                "_STATISTICS_TAGS-eng": "BPS DURATION NUMBER_OF_FRAMES NUMBER_OF_BYTES"
            }
        },
        {
            "index": 34,
            "codec_name": "hdmv_pgs_subtitle",
            "codec_long_name": "HDMV Presentation Graphic Stream subtitles",
            "codec_type": "subtitle",
            "codec_time_base": "0/1",
            "codec_tag_string": "[0][0][0][0]",
            "codec_tag": "0x0000",
            "r_frame_rate": "0/0",
            "avg_frame_rate": "0/0",
            "time_base": "1/1000",
            "start_pts": 0,
            "start_time": "0.000000",
            "duration_ts": 8178688,
            "duration": "8178.688000",
            "disposition": {
                "default": 0,
                "dub": 0,
                "original": 0,
                "comment": 0,
                "lyrics": 0,
                "karaoke": 0,
                "forced": 0,
                "hearing_impaired": 0,
                "visual_impaired": 0,
                "clean_effects": 0,
                "attached_pic": 0,
                "timed_thumbnails": 0
            },
            "tags": {
                "language": "tha",
                "BPS-eng": "20508",
                "DURATION-eng": "02:15:28.037000000",
                "NUMBER_OF_FRAMES-eng": "2604",
                "NUMBER_OF_BYTES-eng": "20836966",
                "_STATISTICS_WRITING_APP-eng": "no_variable_data",
                "_STATISTICS_WRITING_DATE_UTC-eng": "1970-01-01 00:00:00",
                "_STATISTICS_TAGS-eng": "BPS DURATION NUMBER_OF_FRAMES NUMBER_OF_BYTES"
            }
        }
    ],
    "format": {
        "filename": "The.Matrix.1999.RERIP.2160p.UHD.BluRay.X265-IAMABLE/The.Matrix.1999.RERIP.2160p.UHD.BluRay.X265-IAMABLE.mkv",
        "nb_streams": 35,
        "nb_programs": 0,
        "format_name": "matroska,webm",
        "format_long_name": "Matroska / WebM",
        "start_time": "0.000000",
        "duration": "8178.688000",
        "size": "37675795874",
        "bit_rate": "36852654",
        "probe_score": 100,
        "tags": {
            "encoder": "no_variable_data",
            "creation_time": "1970-01-01T00:00:00.000000Z"
        }
    }
}
